<?xml version="1.0" standalone="no"?>
<!DOCTYPE svg PUBLIC "-//W3C//DTD SVG 20010904//EN"
 "http://www.w3.org/TR/2001/REC-SVG-20010904/DTD/svg10.dtd">
<svg version="1.0" xmlns="http://www.w3.org/2000/svg"
 width="310.000000pt" height="163.000000pt" viewBox="0 0 310.000000 163.000000"
 preserveAspectRatio="xMidYMid meet">

<g transform="translate(0.000000,163.000000) scale(0.100000,-0.100000)"
fill="#000000" stroke="none">
<path d="M0 1190 l0 -440 1550 0 1550 0 0 65 0 65 -930 0 -930 0 0 65 0 65
930 0 930 0 0 60 0 60 -930 0 -930 0 0 65 0 65 930 0 930 0 0 60 0 60 -930 0
-930 0 0 65 0 65 930 0 930 0 0 60 0 60 -1550 0 -1550 0 0 -440z m133 370 c19
-1 20 -2 7 -13 -9 -7 -14 -21 -12 -32 3 -16 1 -17 -9 -8 -8 8 -18 9 -30 2 -15
-7 -17 -6 -13 6 4 8 1 22 -6 30 -10 12 -9 15 4 15 9 0 20 8 24 18 6 16 7 16
10 0 2 -11 13 -18 25 -18z m187 15 c0 -8 7 -15 16 -15 13 0 14 -3 5 -14 -6 -7
-8 -22 -4 -32 6 -17 5 -17 -10 -5 -14 11 -20 11 -34 0 -15 -12 -16 -12 -10 5
4 10 2 25 -4 32 -9 11 -8 14 5 14 9 0 16 7 16 15 0 8 5 15 10 15 6 0 10 -7 10
-15z m227 -15 c13 0 13 -3 3 -15 -7 -8 -9 -22 -6 -31 5 -14 4 -15 -9 -4 -12
10 -18 10 -31 -1 -14 -12 -16 -11 -12 6 2 11 -3 25 -12 32 -13 11 -12 12 8 13
14 0 22 6 22 18 1 16 1 16 11 0 5 -10 17 -18 26 -18z m206 0 c19 -1 20 -2 7
-13 -9 -7 -14 -21 -12 -32 3 -16 1 -17 -9 -8 -8 8 -18 9 -30 2 -15 -7 -17 -6
-13 6 4 8 1 22 -6 30 -10 12 -9 15 4 15 9 0 20 8 24 18 6 16 7 16 10 0 2 -11
13 -18 25 -18z m187 15 c0 -8 7 -15 16 -15 13 0 14 -3 5 -14 -6 -7 -8 -22 -4
-32 6 -17 5 -17 -10 -5 -14 11 -20 11 -34 0 -15 -12 -16 -12 -10 5 4 10 2 25
-4 32 -9 11 -8 14 5 14 9 0 16 7 16 15 0 8 5 15 10 15 6 0 10 -7 10 -15z m227
-15 c13 0 13 -3 3 -15 -7 -8 -9 -22 -6 -31 5 -14 4 -15 -9 -4 -12 10 -18 10
-31 -1 -14 -12 -16 -11 -12 6 2 11 -3 25 -12 32 -13 11 -12 12 8 13 14 0 22 6
22 18 1 16 1 16 11 0 5 -10 17 -18 26 -18z m-927 -90 c10 0 10 -3 0 -15 -6 -8
-9 -18 -6 -23 3 -5 -8 -9 -25 -9 -20 0 -28 4 -25 13 3 8 -3 18 -12 23 -16 10
-16 10 1 11 10 0 20 7 24 16 6 16 7 16 18 0 7 -9 18 -16 25 -16z m208 0 c16
-1 16 -1 0 -11 -9 -5 -15 -15 -12 -23 3 -9 -5 -13 -25 -13 -17 0 -28 4 -25 9
3 5 0 15 -6 23 -10 12 -9 15 3 15 8 0 18 8 22 18 6 16 7 16 16 0 6 -10 18 -18
27 -18z m182 15 c0 -8 7 -15 16 -15 13 0 14 -3 4 -15 -6 -8 -9 -18 -6 -23 3
-5 -8 -9 -24 -9 -16 0 -27 4 -24 9 3 5 0 15 -6 23 -10 12 -9 15 4 15 9 0 16 7
16 15 0 8 5 15 10 15 6 0 10 -7 10 -15z m230 -15 c10 0 10 -3 0 -15 -6 -8 -9
-18 -6 -23 3 -5 -8 -9 -25 -9 -20 0 -28 4 -25 13 3 8 -3 18 -12 23 -16 10 -16
10 1 11 10 0 20 7 24 16 6 16 7 16 18 0 7 -9 18 -16 25 -16z m208 0 c16 -1 16
-1 0 -11 -9 -5 -15 -15 -12 -23 3 -9 -5 -13 -25 -13 -17 0 -28 4 -25 9 3 5 0
15 -6 23 -10 12 -9 15 3 15 8 0 18 8 22 18 6 16 7 16 16 0 6 -10 18 -18 27
-18z m-936 -115 c-2 -14 -12 -20 -32 -21 -21 -1 -27 3 -23 13 3 8 0 19 -8 24
-11 7 -11 9 2 9 9 0 19 7 23 15 5 13 8 13 24 -2 10 -10 16 -27 14 -38z m188
40 c0 -8 8 -15 17 -15 13 0 14 -3 6 -11 -6 -6 -9 -17 -7 -24 3 -7 -6 -12 -26
-12 -20 0 -29 5 -26 12 2 7 -1 18 -7 24 -8 8 -7 11 6 11 9 0 17 7 17 15 0 8 5
15 10 15 6 0 10 -7 10 -15z m231 -15 c12 0 12 -2 0 -9 -8 -5 -11 -16 -8 -24 4
-12 -1 -15 -21 -14 -33 2 -45 34 -22 58 12 13 17 14 26 3 6 -8 17 -14 25 -14z
m201 -25 c-2 -14 -12 -20 -32 -21 -21 -1 -27 3 -23 13 3 8 0 19 -8 24 -11 7
-11 9 2 9 9 0 19 7 23 15 5 13 8 13 24 -2 10 -10 16 -27 14 -38z m188 40 c0
-8 8 -15 17 -15 13 0 14 -3 6 -11 -6 -6 -9 -17 -7 -24 3 -7 -6 -12 -26 -12
-20 0 -29 5 -26 12 2 7 -1 18 -7 24 -8 8 -7 11 6 11 9 0 17 7 17 15 0 8 5 15
10 15 6 0 10 -7 10 -15z m231 -15 c12 0 12 -2 0 -9 -8 -5 -11 -16 -8 -24 4
-12 -1 -15 -21 -14 -33 2 -45 34 -22 58 12 13 17 14 26 3 6 -8 17 -14 25 -14z
m-934 -80 c13 0 13 -3 3 -15 -7 -8 -10 -22 -6 -30 6 -17 -9 -21 -19 -5 -5 8
-11 7 -21 -1 -11 -9 -14 -8 -14 8 0 10 -5 24 -12 31 -9 9 -7 12 10 12 14 0 22
6 22 18 1 16 1 16 11 0 5 -10 17 -18 26 -18z m206 0 c16 0 18 -3 9 -12 -7 -7
-12 -21 -12 -31 0 -16 -3 -17 -14 -8 -10 8 -16 9 -21 1 -10 -16 -25 -12 -19 5
4 8 1 22 -6 30 -10 12 -9 15 4 15 9 0 20 8 24 18 6 16 7 16 10 0 2 -11 12 -18
25 -18z m414 0 c13 0 13 -3 3 -15 -7 -8 -10 -22 -6 -30 6 -17 -9 -21 -19 -5
-5 8 -11 7 -21 -1 -11 -9 -14 -8 -14 8 0 10 -5 24 -12 31 -9 9 -7 12 10 12 14
0 22 6 22 18 1 16 1 16 11 0 5 -10 17 -18 26 -18z m206 0 c16 0 18 -3 9 -12
-7 -7 -12 -21 -12 -31 0 -16 -3 -17 -14 -8 -10 8 -16 9 -21 1 -10 -16 -25 -12
-19 5 4 8 1 22 -6 30 -10 12 -9 15 4 15 9 0 20 8 24 18 6 16 7 16 10 0 2 -11
12 -18 25 -18z m-433 10 c0 -5 7 -10 15 -10 8 0 15 -4 15 -10 0 -5 -5 -10 -11
-10 -6 0 -8 -8 -5 -17 5 -14 0 -18 -24 -18 -24 0 -29 4 -24 18 3 9 1 17 -5 17
-6 0 -11 5 -11 10 0 6 7 10 15 10 8 0 15 5 15 10 0 6 5 10 10 10 6 0 10 -4 10
-10z m-497 -100 c16 0 18 -3 9 -12 -7 -7 -12 -21 -12 -32 0 -15 -3 -17 -12 -8
-7 7 -17 8 -29 1 -15 -7 -17 -6 -13 6 4 8 1 22 -6 30 -10 12 -9 15 4 15 9 0
20 8 24 18 6 16 7 16 10 0 2 -11 12 -18 25 -18z m414 0 c13 0 13 -3 3 -15 -7
-8 -10 -22 -6 -30 4 -12 2 -13 -13 -6 -12 7 -22 6 -29 -1 -9 -9 -12 -7 -12 8
0 11 -5 25 -12 32 -9 9 -7 12 10 12 14 0 22 6 22 18 1 16 1 16 11 0 5 -10 17
-18 26 -18z m206 0 c16 0 18 -3 9 -12 -7 -7 -12 -21 -12 -32 0 -15 -3 -17 -12
-8 -7 7 -17 8 -29 1 -15 -7 -17 -6 -13 6 4 8 1 22 -6 30 -10 12 -9 15 4 15 9
0 20 8 24 18 6 16 7 16 10 0 2 -11 12 -18 25 -18z m414 0 c13 0 13 -3 3 -15
-7 -8 -10 -22 -6 -30 4 -12 2 -13 -13 -6 -12 7 -22 6 -29 -1 -9 -9 -12 -7 -12
8 0 11 -5 25 -12 32 -9 9 -7 12 10 12 14 0 22 6 22 18 1 16 1 16 11 0 5 -10
17 -18 26 -18z m-847 10 c0 -5 7 -10 15 -10 8 0 15 -4 15 -10 0 -5 -5 -10 -11
-10 -6 0 -8 -9 -3 -22 6 -20 5 -21 -10 -9 -13 11 -19 11 -33 0 -15 -12 -16
-12 -10 5 4 10 2 25 -4 32 -9 11 -8 14 5 14 9 0 16 5 16 10 0 6 5 10 10 10 6
0 10 -4 10 -10z m620 0 c0 -5 7 -10 15 -10 8 0 15 -4 15 -10 0 -5 -5 -10 -11
-10 -6 0 -8 -9 -3 -22 6 -20 5 -21 -10 -9 -13 11 -19 11 -33 0 -15 -12 -16
-12 -10 5 4 10 2 25 -4 32 -9 11 -8 14 5 14 9 0 16 5 16 10 0 6 5 10 10 10 6
0 10 -4 10 -10z m-705 -100 c10 0 11 -5 2 -22 -11 -25 -62 -37 -53 -12 3 7 -3
18 -12 23 -15 9 -14 10 6 11 14 0 22 6 22 18 1 16 1 16 11 0 5 -10 16 -18 24
-18z m208 0 c19 -1 20 -2 6 -13 -9 -7 -14 -17 -12 -23 2 -7 -6 -11 -20 -10
-27 1 -57 46 -31 46 8 0 18 8 22 18 6 16 7 16 10 0 2 -11 13 -18 25 -18z m187
15 c0 -8 7 -15 16 -15 13 0 14 -3 5 -14 -6 -7 -8 -22 -4 -32 6 -17 5 -17 -10
-5 -14 11 -20 11 -34 0 -15 -12 -16 -12 -10 5 4 10 2 25 -4 32 -9 11 -8 14 5
14 9 0 16 7 16 15 0 8 5 15 10 15 6 0 10 -7 10 -15z m225 -15 c10 0 11 -5 2
-22 -11 -25 -62 -37 -53 -12 3 7 -3 18 -12 23 -15 9 -14 10 6 11 14 0 22 6 22
18 1 16 1 16 11 0 5 -10 16 -18 24 -18z m208 0 c19 -1 20 -2 6 -13 -9 -7 -14
-17 -12 -23 2 -7 -6 -11 -20 -10 -27 1 -57 46 -31 46 8 0 18 8 22 18 6 16 7
16 10 0 2 -11 13 -18 25 -18z m-925 -90 c16 -1 16 -1 0 -11 -9 -5 -15 -15 -13
-22 3 -8 -5 -12 -24 -13 -22 -1 -28 3 -24 13 3 8 0 19 -8 24 -11 7 -11 9 2 9
9 0 20 8 24 18 6 16 7 16 16 0 6 -10 18 -18 27 -18z m182 15 c0 -8 8 -15 17
-15 13 0 14 -3 6 -11 -6 -6 -9 -17 -7 -24 3 -7 -6 -12 -26 -12 -20 0 -29 5
-26 12 2 7 -1 18 -7 24 -8 8 -7 11 6 11 9 0 17 7 17 15 0 8 5 15 10 15 6 0 10
-7 10 -15z m230 -15 c10 0 10 -3 0 -15 -6 -8 -9 -18 -6 -23 3 -5 -8 -9 -24 -8
-19 1 -28 5 -25 13 2 7 -4 17 -13 22 -16 10 -16 10 1 11 10 0 20 7 24 16 6 16
7 16 18 0 7 -9 18 -16 25 -16z m208 0 c16 -1 16 -1 0 -11 -9 -5 -15 -15 -13
-22 3 -8 -5 -12 -24 -13 -22 -1 -28 3 -24 13 3 8 0 19 -8 24 -11 7 -11 9 2 9
9 0 20 8 24 18 6 16 7 16 16 0 6 -10 18 -18 27 -18z m182 15 c0 -8 8 -15 17
-15 13 0 14 -3 6 -11 -6 -6 -9 -17 -7 -24 3 -7 -6 -12 -26 -12 -20 0 -29 5
-26 12 2 7 -1 18 -7 24 -8 8 -7 11 6 11 9 0 17 7 17 15 0 8 5 15 10 15 6 0 10
-7 10 -15z m230 -15 c10 0 10 -3 0 -15 -6 -8 -9 -18 -6 -23 3 -5 -8 -9 -24 -8
-19 1 -28 5 -25 13 2 7 -4 17 -13 22 -16 10 -16 10 1 11 10 0 20 7 24 16 6 16
7 16 18 0 7 -9 18 -16 25 -16z m-920 -92 c0 -5 -5 -8 -11 -8 -6 0 -9 -9 -6
-20 5 -21 -7 -28 -18 -10 -5 8 -11 7 -21 -1 -11 -9 -14 -8 -14 8 0 10 -5 24
-12 31 -9 9 -7 12 10 12 12 0 22 4 22 9 0 5 11 4 25 -2 14 -7 25 -15 25 -19z
m193 12 c16 0 18 -3 9 -12 -7 -7 -12 -21 -12 -31 0 -16 -3 -17 -14 -8 -10 8
-16 9 -21 1 -11 -18 -23 -11 -18 10 3 11 0 20 -6 20 -6 0 -11 3 -11 8 0 10 44
29 48 20 2 -5 13 -8 25 -8z m187 10 c0 -5 7 -10 15 -10 17 0 20 -16 5 -25 -5
-3 -7 -11 -4 -18 3 -8 -6 -12 -26 -12 -20 0 -29 4 -26 12 3 7 1 15 -4 18 -15
9 -12 25 5 25 8 0 15 5 15 10 0 6 5 10 10 10 6 0 10 -4 10 -10z m240 -22 c0
-5 -5 -8 -11 -8 -6 0 -9 -9 -6 -20 5 -21 -7 -28 -18 -10 -5 8 -11 7 -21 -1
-11 -9 -14 -8 -14 8 0 10 -5 24 -12 31 -9 9 -7 12 10 12 12 0 22 4 22 9 0 5
11 4 25 -2 14 -7 25 -15 25 -19z m193 12 c16 0 18 -3 9 -12 -7 -7 -12 -21 -12
-31 0 -16 -3 -17 -14 -8 -10 8 -16 9 -21 1 -11 -18 -23 -11 -18 10 3 11 0 20
-6 20 -6 0 -11 3 -11 8 0 10 44 29 48 20 2 -5 13 -8 25 -8z m-930 -90 c16 0
18 -3 9 -12 -7 -7 -12 -21 -12 -32 0 -15 -3 -17 -12 -8 -7 7 -17 8 -29 1 -15
-7 -17 -6 -13 6 4 8 1 22 -6 30 -10 12 -9 15 4 15 9 0 20 8 24 18 6 16 7 16
10 0 2 -11 12 -18 25 -18z m414 0 c13 0 13 -3 3 -15 -7 -8 -10 -22 -6 -30 4
-12 2 -13 -13 -6 -12 7 -22 6 -29 -1 -9 -9 -12 -7 -12 8 0 11 -5 25 -12 32 -9
9 -7 12 10 12 14 0 22 6 22 18 1 16 1 16 11 0 5 -10 17 -18 26 -18z m206 0
c16 0 18 -3 9 -12 -7 -7 -12 -21 -12 -32 0 -15 -3 -17 -12 -8 -7 7 -17 8 -29
1 -15 -7 -17 -6 -13 6 4 8 1 22 -6 30 -10 12 -9 15 4 15 9 0 20 8 24 18 6 16
7 16 10 0 2 -11 12 -18 25 -18z m414 0 c13 0 13 -3 3 -15 -7 -8 -10 -22 -6
-30 4 -12 2 -13 -13 -6 -12 7 -22 6 -29 -1 -9 -9 -12 -7 -12 8 0 11 -5 25 -12
32 -9 9 -7 12 10 12 14 0 22 6 22 18 1 16 1 16 11 0 5 -10 17 -18 26 -18z
m-847 10 c0 -5 7 -10 15 -10 8 0 15 -4 15 -10 0 -5 -5 -10 -11 -10 -6 0 -8 -9
-3 -22 6 -20 5 -21 -10 -9 -13 11 -19 11 -32 0 -15 -12 -16 -11 -10 9 5 13 3
22 -3 22 -6 0 -11 5 -11 10 0 6 7 10 15 10 8 0 15 5 15 10 0 6 5 10 10 10 6 0
10 -4 10 -10z m620 0 c0 -5 7 -10 15 -10 8 0 15 -4 15 -10 0 -5 -5 -10 -11
-10 -6 0 -8 -9 -3 -22 6 -20 5 -21 -10 -9 -13 11 -19 11 -32 0 -15 -12 -16
-11 -10 9 5 13 3 22 -3 22 -6 0 -11 5 -11 10 0 6 7 10 15 10 8 0 15 5 15 10 0
6 5 10 10 10 6 0 10 -4 10 -10z"/>
<path d="M0 560 l0 -60 1550 0 1550 0 0 60 0 60 -1550 0 -1550 0 0 -60z"/>
<path d="M0 310 l0 -60 1550 0 1550 0 0 60 0 60 -1550 0 -1550 0 0 -60z"/>
<path d="M0 60 l0 -60 1550 0 1550 0 0 60 0 60 -1550 0 -1550 0 0 -60z"/>
</g>
</svg>
